<svg width="139" height="139" viewBox="0 0 139 139" fill="none" xmlns="http://www.w3.org/2000/svg">
<g filter="url(#filter0_d_635_396)">
<circle cx="65.5" cy="65.5" r="65.5" fill="#EFEFEF"/>
<circle cx="65.5" cy="65.5" r="65.5" fill="#EFEFEF"/>
</g>
<path d="M40.8471 32.3013C36.0346 32.3013 32.4734 36.5764 32.6329 41.2126C32.7861 45.6666 32.5871 51.4358 31.1562 56.1402C29.7211 60.8584 27.2936 63.8471 23.3289 64.231V68.5633C27.2936 68.9472 29.7211 71.9359 31.1562 76.6544C32.5871 81.3589 32.7861 87.1273 32.6329 91.5817C32.4734 96.2173 36.0346 100.493 40.8477 100.493H90.1594C94.9722 100.493 98.5324 96.2179 98.3729 91.5817C98.22 87.1277 98.4187 81.3589 99.8496 76.6544C101.286 71.9362 103.707 68.9468 107.671 68.5633V64.231C103.707 63.8471 101.286 60.8584 99.8499 56.1402C98.4187 51.4364 98.22 45.667 98.3729 41.2126C98.5324 36.577 94.9722 32.3013 90.1594 32.3013H40.8471ZM80.5104 74.2776C80.5104 80.6617 75.8189 84.5332 68.033 84.5332H54.7787C54.3996 84.5331 54.0361 84.3802 53.7681 84.1081C53.5001 83.836 53.3495 83.467 53.3495 83.0823V49.712C53.3495 49.5215 53.3864 49.3328 53.4582 49.1567C53.53 48.9806 53.6353 48.8206 53.7681 48.6859C53.9008 48.5511 54.0584 48.4442 54.2319 48.3713C54.4054 48.2983 54.5913 48.2608 54.779 48.2608H67.9572C74.4493 48.2608 78.7099 51.8303 78.7099 57.3102C78.7099 61.1567 75.8436 64.6002 72.1921 65.2031V65.404C77.1634 65.9574 80.5104 69.4514 80.5104 74.2776ZM66.5873 52.8603H59.0304V63.6943H65.3957C70.3158 63.6943 73.0293 61.6833 73.0293 58.0887C73.0293 54.7204 70.6957 52.8603 66.5873 52.8603ZM59.0304 67.9932V79.9324H66.8657C71.9882 79.9324 74.7023 77.8462 74.7023 73.9252C74.7023 70.0035 71.9128 67.9925 66.5363 67.9925L59.0304 67.9932Z" fill="#7E13F8"/>
<defs>
<filter id="filter0_d_635_396" x="0" y="0" width="139" height="139" filterUnits="userSpaceOnUse" color-interpolation-filters="sRGB">
<feFlood flood-opacity="0" result="BackgroundImageFix"/>
<feColorMatrix in="SourceAlpha" type="matrix" values="0 0 0 0 0 0 0 0 0 0 0 0 0 0 0 0 0 0 127 0" result="hardAlpha"/>
<feOffset dx="4" dy="4"/>
<feGaussianBlur stdDeviation="2"/>
<feComposite in2="hardAlpha" operator="out"/>
<feColorMatrix type="matrix" values="0 0 0 0 0.554167 0 0 0 0 0.554167 0 0 0 0 0.554167 0 0 0 0.25 0"/>
<feBlend mode="normal" in2="BackgroundImageFix" result="effect1_dropShadow_635_396"/>
<feBlend mode="normal" in="SourceGraphic" in2="effect1_dropShadow_635_396" result="shape"/>
</filter>
</defs>
</svg>
