<svg width="139" height="139" viewBox="0 0 139 139" fill="none" xmlns="http://www.w3.org/2000/svg">
<g filter="url(#filter0_d_635_392)">
<circle cx="65.5" cy="65.5" r="65.5" fill="#EFEFEF"/>
<circle cx="65.5" cy="65.5" r="65.5" fill="#EFEFEF"/>
</g>
<path d="M39.2157 100.137L33.1699 32.3013H99.6246L93.5708 100.126L66.3569 107.671L39.2157 100.137Z" fill="#1572B6"/>
<path d="M66.3975 101.905L88.3893 95.8085L93.5629 37.8491H66.3975V101.905Z" fill="#33A9DC"/>
<path d="M66.3975 62.425H77.4068L78.1659 53.9055H66.3975V45.5852H87.2588L87.0596 47.8167L85.0165 70.7453H66.3975V62.425V62.425Z" fill="white"/>
<path d="M66.4485 84.0319L66.4108 84.0427L57.1457 81.5393L56.5535 74.9041H48.2009L49.3665 87.9673L66.4081 92.6994L66.4485 92.6887V84.0319V84.0319Z" fill="#EBEBEB"/>
<path d="M76.6989 70.3926L75.6975 81.5339L66.4189 84.0372V92.694L83.4741 87.9672L83.6006 86.5621L85.0461 70.3926H76.6989V70.3926Z" fill="white"/>
<path d="M66.4269 45.5852V53.9055H46.3301L46.1632 52.0347L45.7837 47.8167L45.5845 45.5852H66.4269V45.5852ZM66.3973 62.425V70.7453H57.248L57.0811 68.8745L56.7042 64.6565L56.505 62.425H66.3973V62.425Z" fill="#EBEBEB"/>
<defs>
<filter id="filter0_d_635_392" x="0" y="0" width="139" height="139" filterUnits="userSpaceOnUse" color-interpolation-filters="sRGB">
<feFlood flood-opacity="0" result="BackgroundImageFix"/>
<feColorMatrix in="SourceAlpha" type="matrix" values="0 0 0 0 0 0 0 0 0 0 0 0 0 0 0 0 0 0 127 0" result="hardAlpha"/>
<feOffset dx="4" dy="4"/>
<feGaussianBlur stdDeviation="2"/>
<feComposite in2="hardAlpha" operator="out"/>
<feColorMatrix type="matrix" values="0 0 0 0 0.554167 0 0 0 0 0.554167 0 0 0 0 0.554167 0 0 0 0.25 0"/>
<feBlend mode="normal" in2="BackgroundImageFix" result="effect1_dropShadow_635_392"/>
<feBlend mode="normal" in="SourceGraphic" in2="effect1_dropShadow_635_392" result="shape"/>
</filter>
</defs>
</svg>
