<svg width="143" height="139" viewBox="0 0 143 139" fill="none" xmlns="http://www.w3.org/2000/svg">
<g filter="url(#filter0_dd_635_390)">
<circle cx="69.5" cy="65.5" r="65.5" fill="#EFEFEF"/>
<circle cx="69.5" cy="65.5" r="65.5" fill="#EFEFEF"/>
</g>
<g clip-path="url(#clip0_635_390)">
<path d="M61.4246 98.6988C67.368 98.6988 72.1917 93.8751 72.1917 87.9317V77.1646H61.4246C55.4811 77.1646 50.6575 81.9882 50.6575 87.9317C50.6575 93.8751 55.4811 98.6988 61.4246 98.6988Z" fill="#0ACF83"/>
<path d="M50.6575 66.3973C50.6575 60.4538 55.4811 55.6301 61.4246 55.6301H72.1917V77.1644H61.4246C55.4811 77.1644 50.6575 72.3407 50.6575 66.3973Z" fill="#A259FF"/>
<path d="M50.6575 44.8631C50.6575 38.9196 55.4811 34.0959 61.4246 34.0959H72.1917V55.6302H61.4246C55.4811 55.6302 50.6575 50.8065 50.6575 44.8631Z" fill="#F24E1E"/>
<path d="M72.1917 34.0959H82.9588C88.9022 34.0959 93.7259 38.9196 93.7259 44.8631C93.7259 50.8065 88.9022 55.6302 82.9588 55.6302H72.1917V34.0959Z" fill="#FF7262"/>
<path d="M93.7259 66.3973C93.7259 72.3407 88.9022 77.1644 82.9588 77.1644C77.0153 77.1644 72.1917 72.3407 72.1917 66.3973C72.1917 60.4538 77.0153 55.6301 82.9588 55.6301C88.9022 55.6301 93.7259 60.4538 93.7259 66.3973Z" fill="#1ABCFE"/>
</g>
<defs>
<filter id="filter0_dd_635_390" x="0" y="0" width="143" height="139" filterUnits="userSpaceOnUse" color-interpolation-filters="sRGB">
<feFlood flood-opacity="0" result="BackgroundImageFix"/>
<feColorMatrix in="SourceAlpha" type="matrix" values="0 0 0 0 0 0 0 0 0 0 0 0 0 0 0 0 0 0 127 0" result="hardAlpha"/>
<feOffset dx="4" dy="4"/>
<feGaussianBlur stdDeviation="2"/>
<feComposite in2="hardAlpha" operator="out"/>
<feColorMatrix type="matrix" values="0 0 0 0 0.554167 0 0 0 0 0.554167 0 0 0 0 0.554167 0 0 0 0.25 0"/>
<feBlend mode="normal" in2="BackgroundImageFix" result="effect1_dropShadow_635_390"/>
<feColorMatrix in="SourceAlpha" type="matrix" values="0 0 0 0 0 0 0 0 0 0 0 0 0 0 0 0 0 0 127 0" result="hardAlpha"/>
<feOffset dy="4"/>
<feGaussianBlur stdDeviation="2"/>
<feComposite in2="hardAlpha" operator="out"/>
<feColorMatrix type="matrix" values="0 0 0 0 0 0 0 0 0 0 0 0 0 0 0 0 0 0 0.25 0"/>
<feBlend mode="normal" in2="effect1_dropShadow_635_390" result="effect2_dropShadow_635_390"/>
<feBlend mode="normal" in="SourceGraphic" in2="effect2_dropShadow_635_390" result="shape"/>
</filter>
<clipPath id="clip0_635_390">
<rect width="43.0685" height="64.6027" fill="white" transform="translate(50.6575 34.0959)"/>
</clipPath>
</defs>
</svg>
