<svg width="139" height="139" viewBox="0 0 139 139" fill="none" xmlns="http://www.w3.org/2000/svg">
<g filter="url(#filter0_d_635_394)">
<circle cx="65.5" cy="65.5" r="65.5" fill="#EFEFEF"/>
<circle cx="65.5" cy="65.5" r="65.5" fill="#EFEFEF"/>
</g>
<path d="M29.6096 29.6096H100.493V100.493H29.6096V29.6096Z" fill="#F5DE19"/>
<path d="M77.2256 84.9874C77.8296 86.2142 78.7679 87.2453 79.9324 87.962C81.097 88.6786 82.4403 89.0516 83.8077 89.0379C86.5671 89.0379 88.3316 87.6582 88.3316 85.7469C88.3316 83.4685 86.519 82.6533 83.4811 81.3242L81.8153 80.6103C77.0054 78.5623 73.8156 75.9979 73.8156 70.5753C73.8156 65.5805 77.6129 61.7756 83.5697 61.7756C85.498 61.6363 87.4246 62.0679 89.1092 63.0165C90.7939 63.965 92.1619 65.3886 93.0428 67.1096L87.8354 70.4386C87.4962 69.5852 86.9056 68.8552 86.142 68.3452C85.3784 67.8352 84.4777 67.5694 83.5596 67.583C83.159 67.5429 82.7544 67.5866 82.3717 67.7115C81.989 67.8364 81.6364 68.0397 81.3366 68.3083C81.0367 68.5769 80.7961 68.9051 80.6301 69.2719C80.4641 69.6387 80.3763 70.036 80.3723 70.4386C80.3723 72.436 81.6103 73.2461 84.4684 74.489L86.1342 75.2029C91.7947 77.6307 94.9946 80.104 94.9946 85.6659C94.9946 91.6631 90.2834 94.9491 83.957 94.9491C81.4921 95.1061 79.0343 94.5465 76.8804 93.3377C74.7264 92.1289 72.9683 90.3225 71.8182 88.1367L77.2256 84.9874ZM53.6948 85.5646C54.7403 87.4202 55.6922 88.9898 57.9807 88.9898C60.168 88.9898 61.5502 88.1341 61.5502 84.8051V62.1553H68.2107V84.8937C68.2107 91.7897 64.1603 94.9288 58.2643 94.9288C56.1802 95.0427 54.1104 94.5234 52.327 93.439C50.5436 92.3545 49.13 90.7559 48.2722 88.8531L53.6948 85.5646Z" fill="black"/>
<defs>
<filter id="filter0_d_635_394" x="0" y="0" width="139" height="139" filterUnits="userSpaceOnUse" color-interpolation-filters="sRGB">
<feFlood flood-opacity="0" result="BackgroundImageFix"/>
<feColorMatrix in="SourceAlpha" type="matrix" values="0 0 0 0 0 0 0 0 0 0 0 0 0 0 0 0 0 0 127 0" result="hardAlpha"/>
<feOffset dx="4" dy="4"/>
<feGaussianBlur stdDeviation="2"/>
<feComposite in2="hardAlpha" operator="out"/>
<feColorMatrix type="matrix" values="0 0 0 0 0.554167 0 0 0 0 0.554167 0 0 0 0 0.554167 0 0 0 0.25 0"/>
<feBlend mode="normal" in2="BackgroundImageFix" result="effect1_dropShadow_635_394"/>
<feBlend mode="normal" in="SourceGraphic" in2="effect1_dropShadow_635_394" result="shape"/>
</filter>
</defs>
</svg>
