<svg width="576" height="592" viewBox="0 0 576 592" fill="none" xmlns="http://www.w3.org/2000/svg">
<circle cx="297.718" cy="278.282" r="276.282" stroke="#CFCFCF" stroke-width="4" stroke-dasharray="21 21"/>
<g filter="url(#filter0_d_582_728)">
<circle cx="32.2454" cy="367.951" r="32.2454" fill="#EFEFEF"/>
<circle cx="32.2454" cy="367.951" r="32.2454" fill="#EFEFEF"/>
</g>
<path d="M19.8633 383.5L17.0098 351.497H48.3645L45.5072 383.495L32.6681 387.055L19.8633 383.5Z" fill="#E44F26"/>
<path d="M32.6873 384.335L43.0627 381.458L45.5035 354.114H32.6873V384.335Z" fill="#F1662A"/>
<path d="M32.6872 365.983H27.4932L27.1351 361.963H32.6872V358.038H22.8452L22.9392 359.092L23.9031 369.908H32.6872V365.983ZM32.6872 376.177L32.6695 376.182L28.2983 375.002L28.0189 371.872H24.0783L24.6282 378.033L32.6695 380.266L32.6872 380.261V376.177Z" fill="#EBEBEB"/>
<path d="M32.6731 365.983V369.908H37.5065L37.0518 374.999L32.6731 376.18V380.265L40.7207 378.033L40.7791 377.37L41.7011 367.037L41.7976 365.983H32.6731ZM32.6731 358.038V361.963H42.1545L42.2332 361.082L42.4123 359.092L42.5062 358.038H32.6731Z" fill="white"/>
<g filter="url(#filter1_d_582_728)">
<circle cx="534.92" cy="419.19" r="32.2454" fill="#EFEFEF"/>
<circle cx="534.92" cy="419.19" r="32.2454" fill="#EFEFEF"/>
</g>
<path d="M517.251 401.521H552.147V436.417H517.251V401.521Z" fill="#F5DE19"/>
<path d="M540.693 428.784C540.99 429.388 541.452 429.895 542.025 430.248C542.598 430.601 543.26 430.784 543.933 430.778C545.291 430.778 546.16 430.099 546.16 429.158C546.16 428.036 545.268 427.635 543.772 426.98L542.952 426.629C540.584 425.621 539.014 424.358 539.014 421.689C539.014 419.23 540.883 417.357 543.816 417.357C544.765 417.288 545.714 417.5 546.543 417.967C547.372 418.434 548.046 419.135 548.479 419.982L545.916 421.621C545.749 421.201 545.458 420.842 545.082 420.591C544.706 420.34 544.263 420.209 543.811 420.216C543.614 420.196 543.414 420.217 543.226 420.279C543.038 420.34 542.864 420.44 542.716 420.573C542.569 420.705 542.45 420.866 542.369 421.047C542.287 421.228 542.244 421.423 542.242 421.621C542.242 422.605 542.851 423.003 544.258 423.615L545.078 423.967C547.865 425.162 549.44 426.38 549.44 429.118C549.44 432.07 547.121 433.688 544.006 433.688C542.793 433.765 541.583 433.49 540.523 432.894C539.462 432.299 538.597 431.41 538.031 430.334L540.693 428.784ZM529.108 429.068C529.623 429.981 530.092 430.754 531.218 430.754C532.295 430.754 532.976 430.333 532.976 428.694V417.544H536.255V428.738C536.255 432.132 534.261 433.678 531.358 433.678C530.332 433.734 529.313 433.478 528.435 432.944C527.557 432.41 526.861 431.623 526.439 430.687L529.108 429.068Z" fill="black"/>
<g filter="url(#filter2_d_582_728)">
<circle cx="291.975" cy="551.706" r="32.2454" fill="#EFEFEF"/>
<circle cx="291.975" cy="551.706" r="32.2454" fill="#EFEFEF"/>
</g>
<path d="M279.036 568.757L276.059 535.362H308.775L305.794 568.752L292.397 572.466L279.036 568.757Z" fill="#1572B6"/>
<path d="M292.417 569.628L303.243 566.626L305.79 538.093H292.417V569.628Z" fill="#33A9DC"/>
<path d="M292.417 550.192H297.837L298.211 545.998H292.417V541.902H302.687L302.589 543L301.583 554.288H292.417V550.192Z" fill="white"/>
<path d="M292.442 560.829L292.424 560.834L287.862 559.602L287.571 556.335H283.459L284.033 562.766L292.422 565.096L292.442 565.09V560.829Z" fill="#EBEBEB"/>
<path d="M297.488 554.114L296.996 559.599L292.428 560.831V565.093L300.824 562.766L300.886 562.074L301.598 554.114H297.488Z" fill="white"/>
<path d="M292.432 541.902V545.998H282.538L282.456 545.077L282.269 543L282.171 541.902H292.432ZM292.417 550.192V554.288H287.913L287.831 553.367L287.645 551.29L287.547 550.192H292.417Z" fill="#EBEBEB"/>
<g filter="url(#filter3_d_582_728)">
<circle cx="515.485" cy="113.522" r="32.2454" fill="#EFEFEF"/>
<circle cx="515.485" cy="113.522" r="32.2454" fill="#EFEFEF"/>
</g>
<path d="M503.348 97.178C500.979 97.178 499.226 99.2826 499.304 101.565C499.38 103.758 499.282 106.598 498.577 108.914C497.871 111.237 496.676 112.708 494.724 112.897V115.03C496.676 115.219 497.871 116.69 498.577 119.013C499.282 121.329 499.38 124.169 499.304 126.362C499.226 128.644 500.979 130.749 503.348 130.749H527.624C529.994 130.749 531.746 128.644 531.668 126.362C531.593 124.169 531.69 121.329 532.395 119.013C533.102 116.69 534.294 115.218 536.245 115.03V112.897C534.294 112.708 533.102 111.237 532.395 108.914C531.69 106.598 531.593 103.758 531.668 101.565C531.746 99.2829 529.994 97.178 527.624 97.178H503.348ZM522.874 117.843C522.874 120.986 520.565 122.892 516.732 122.892H510.207C510.02 122.892 509.841 122.816 509.709 122.682C509.577 122.548 509.503 122.367 509.503 122.177V105.749C509.503 105.655 509.521 105.563 509.556 105.476C509.592 105.389 509.644 105.31 509.709 105.244C509.774 105.178 509.852 105.125 509.937 105.089C510.023 105.053 510.114 105.035 510.207 105.035H516.694C519.89 105.035 521.988 106.792 521.988 109.49C521.988 111.383 520.577 113.079 518.779 113.375V113.474C521.226 113.747 522.874 115.467 522.874 117.843ZM516.02 107.299H512.3V112.633H515.433C517.855 112.633 519.191 111.643 519.191 109.873C519.191 108.215 518.042 107.299 516.02 107.299ZM512.3 114.749V120.627H516.157C518.679 120.627 520.015 119.6 520.015 117.669C520.015 115.739 518.642 114.749 515.995 114.749L512.3 114.749Z" fill="#7E13F8"/>
<g filter="url(#filter4_dd_582_728)">
<circle cx="117.055" cy="69.3499" r="32.2454" fill="#EFEFEF"/>
<circle cx="117.055" cy="69.3499" r="32.2454" fill="#EFEFEF"/>
</g>
<g clip-path="url(#clip0_582_728)">
<path d="M113.08 85.6933C116.006 85.6933 118.38 83.3186 118.38 80.3927V75.092H113.08C110.154 75.092 107.779 77.4667 107.779 80.3927C107.779 83.3186 110.154 85.6933 113.08 85.6933Z" fill="#0ACF83"/>
<path d="M107.779 69.7916C107.779 66.8656 110.154 64.491 113.08 64.491H118.38V75.0922H113.08C110.154 75.0922 107.779 72.7175 107.779 69.7916Z" fill="#A259FF"/>
<path d="M107.779 59.1903C107.779 56.2643 110.154 53.8896 113.08 53.8896H118.38V64.4909H113.08C110.154 64.4909 107.779 62.1162 107.779 59.1903Z" fill="#F24E1E"/>
<path d="M118.38 53.8896H123.681C126.607 53.8896 128.982 56.2643 128.982 59.1903C128.982 62.1162 126.607 64.4909 123.681 64.4909H118.38V53.8896Z" fill="#FF7262"/>
<path d="M128.982 69.7916C128.982 72.7175 126.607 75.0922 123.681 75.0922C120.755 75.0922 118.38 72.7175 118.38 69.7916C118.38 66.8656 120.755 64.491 123.681 64.491C126.607 64.491 128.982 66.8656 128.982 69.7916Z" fill="#1ABCFE"/>
</g>
<defs>
<filter id="filter0_d_582_728" x="0" y="335.705" width="72.4907" height="72.4907" filterUnits="userSpaceOnUse" color-interpolation-filters="sRGB">
<feFlood flood-opacity="0" result="BackgroundImageFix"/>
<feColorMatrix in="SourceAlpha" type="matrix" values="0 0 0 0 0 0 0 0 0 0 0 0 0 0 0 0 0 0 127 0" result="hardAlpha"/>
<feOffset dx="4" dy="4"/>
<feGaussianBlur stdDeviation="2"/>
<feComposite in2="hardAlpha" operator="out"/>
<feColorMatrix type="matrix" values="0 0 0 0 0.554167 0 0 0 0 0.554167 0 0 0 0 0.554167 0 0 0 0.25 0"/>
<feBlend mode="normal" in2="BackgroundImageFix" result="effect1_dropShadow_582_728"/>
<feBlend mode="normal" in="SourceGraphic" in2="effect1_dropShadow_582_728" result="shape"/>
</filter>
<filter id="filter1_d_582_728" x="502.675" y="386.945" width="72.4907" height="72.4907" filterUnits="userSpaceOnUse" color-interpolation-filters="sRGB">
<feFlood flood-opacity="0" result="BackgroundImageFix"/>
<feColorMatrix in="SourceAlpha" type="matrix" values="0 0 0 0 0 0 0 0 0 0 0 0 0 0 0 0 0 0 127 0" result="hardAlpha"/>
<feOffset dx="4" dy="4"/>
<feGaussianBlur stdDeviation="2"/>
<feComposite in2="hardAlpha" operator="out"/>
<feColorMatrix type="matrix" values="0 0 0 0 0.554167 0 0 0 0 0.554167 0 0 0 0 0.554167 0 0 0 0.25 0"/>
<feBlend mode="normal" in2="BackgroundImageFix" result="effect1_dropShadow_582_728"/>
<feBlend mode="normal" in="SourceGraphic" in2="effect1_dropShadow_582_728" result="shape"/>
</filter>
<filter id="filter2_d_582_728" x="259.73" y="519.46" width="72.4907" height="72.4907" filterUnits="userSpaceOnUse" color-interpolation-filters="sRGB">
<feFlood flood-opacity="0" result="BackgroundImageFix"/>
<feColorMatrix in="SourceAlpha" type="matrix" values="0 0 0 0 0 0 0 0 0 0 0 0 0 0 0 0 0 0 127 0" result="hardAlpha"/>
<feOffset dx="4" dy="4"/>
<feGaussianBlur stdDeviation="2"/>
<feComposite in2="hardAlpha" operator="out"/>
<feColorMatrix type="matrix" values="0 0 0 0 0.554167 0 0 0 0 0.554167 0 0 0 0 0.554167 0 0 0 0.25 0"/>
<feBlend mode="normal" in2="BackgroundImageFix" result="effect1_dropShadow_582_728"/>
<feBlend mode="normal" in="SourceGraphic" in2="effect1_dropShadow_582_728" result="shape"/>
</filter>
<filter id="filter3_d_582_728" x="483.239" y="81.2761" width="72.4907" height="72.4907" filterUnits="userSpaceOnUse" color-interpolation-filters="sRGB">
<feFlood flood-opacity="0" result="BackgroundImageFix"/>
<feColorMatrix in="SourceAlpha" type="matrix" values="0 0 0 0 0 0 0 0 0 0 0 0 0 0 0 0 0 0 127 0" result="hardAlpha"/>
<feOffset dx="4" dy="4"/>
<feGaussianBlur stdDeviation="2"/>
<feComposite in2="hardAlpha" operator="out"/>
<feColorMatrix type="matrix" values="0 0 0 0 0.554167 0 0 0 0 0.554167 0 0 0 0 0.554167 0 0 0 0.25 0"/>
<feBlend mode="normal" in2="BackgroundImageFix" result="effect1_dropShadow_582_728"/>
<feBlend mode="normal" in="SourceGraphic" in2="effect1_dropShadow_582_728" result="shape"/>
</filter>
<filter id="filter4_dd_582_728" x="80.8098" y="37.1045" width="76.4907" height="72.4907" filterUnits="userSpaceOnUse" color-interpolation-filters="sRGB">
<feFlood flood-opacity="0" result="BackgroundImageFix"/>
<feColorMatrix in="SourceAlpha" type="matrix" values="0 0 0 0 0 0 0 0 0 0 0 0 0 0 0 0 0 0 127 0" result="hardAlpha"/>
<feOffset dx="4" dy="4"/>
<feGaussianBlur stdDeviation="2"/>
<feComposite in2="hardAlpha" operator="out"/>
<feColorMatrix type="matrix" values="0 0 0 0 0.554167 0 0 0 0 0.554167 0 0 0 0 0.554167 0 0 0 0.25 0"/>
<feBlend mode="normal" in2="BackgroundImageFix" result="effect1_dropShadow_582_728"/>
<feColorMatrix in="SourceAlpha" type="matrix" values="0 0 0 0 0 0 0 0 0 0 0 0 0 0 0 0 0 0 127 0" result="hardAlpha"/>
<feOffset dy="4"/>
<feGaussianBlur stdDeviation="2"/>
<feComposite in2="hardAlpha" operator="out"/>
<feColorMatrix type="matrix" values="0 0 0 0 0 0 0 0 0 0 0 0 0 0 0 0 0 0 0.25 0"/>
<feBlend mode="normal" in2="effect1_dropShadow_582_728" result="effect2_dropShadow_582_728"/>
<feBlend mode="normal" in="SourceGraphic" in2="effect2_dropShadow_582_728" result="shape"/>
</filter>
<clipPath id="clip0_582_728">
<rect width="21.2025" height="31.8037" fill="white" transform="translate(107.779 53.8896)"/>
</clipPath>
</defs>
</svg>
