<svg width="398" height="275" viewBox="0 0 398 275" fill="none" xmlns="http://www.w3.org/2000/svg">
<path d="M11.8074 273.45C6.47616 272.013 -0.0119322 266.037 1.3771 257.823C2.06599 253.749 4.71002 251.111 7.45158 249.406C11.2437 247.048 15.5625 246.159 19.7245 245.934C24.5251 245.675 29.3203 246.328 34.085 247.019C38.7888 247.701 43.4929 248.311 48.2177 248.684C66.7059 250.131 85.3071 248.753 103.378 244.597C107.838 243.57 112.272 242.365 116.679 240.982C120.854 239.755 124.937 238.233 128.895 236.425C134.135 233.915 142.655 229.031 141.96 219.985C141.592 215.189 138.761 211.358 135.906 208.689C132.454 205.462 128.459 203.339 124.547 201.277C106.349 191.687 88.1154 182.21 69.8996 172.678C65.6482 170.453 61.3686 168.288 57.2426 165.681C53.3797 163.24 49.5348 160.404 46.4261 156.484C43.7109 153.06 41.2846 148.463 41.3702 143.324C41.4412 139.062 43.3847 135.446 45.7649 132.743C51.6578 126.051 59.9939 123.338 67.5281 121.917C76.8886 120.151 86.3845 120.16 95.751 118.456C103.314 117.079 111.395 114.421 117.546 108.194C120.148 105.661 121.988 102.452 122.859 98.9304C123.644 95.2418 123.262 91.4009 121.766 87.9382C120.1 83.9668 117.442 80.8032 114.648 78.2126C111.437 75.2783 107.797 72.8509 103.851 71.0147C95.5439 67.0644 86.8084 65.0076 78.2992 61.9761C74.1261 60.4894 69.9107 58.8591 66.0357 56.3054C62.7528 54.1419 59.1765 51.2257 57.3501 46.889C53.5816 37.9415 62.5719 32.6088 67.6661 30.5889C71.1285 29.2784 74.6949 28.2596 78.3278 27.5431C79.096 27.3785 78.77 25.8485 78.0055 26.0122C74.1815 26.7562 70.4338 27.8482 66.8094 29.2746C63.7375 30.5483 60.5678 32.2221 58.1549 35.1025C57.0562 36.4029 56.244 37.9194 55.7708 39.5535C55.2976 41.1875 55.174 42.9026 55.4081 44.5874C56.0472 48.8806 58.8254 52.1885 61.4347 54.5846C64.8851 57.7531 68.8193 59.8223 72.8081 61.5091C77.009 63.2855 81.2991 64.67 85.5877 66.028C94.1574 68.7416 103.111 71.1598 110.848 76.9342C116.259 80.9735 123.611 88.5471 121.811 97.9347C121.012 102.102 118.585 105.36 115.966 107.756C112.891 110.487 109.345 112.639 105.5 114.107C88.3567 120.992 69.4895 116.068 52.7882 125.419C47.1097 128.599 40.2123 134.387 40.1567 143.495C40.1279 148.227 42.0284 152.566 44.3781 155.996C47.1923 160.104 50.8365 163.142 54.5442 165.681C58.4483 168.256 62.5021 170.598 66.6841 172.695C71.2527 175.089 75.8223 177.481 80.3928 179.869L108.13 194.384L121.911 201.596C126.117 203.797 130.431 205.908 134.255 209.139C137.386 211.785 141.086 216.125 140.766 221.514C140.513 225.794 137.663 228.883 135.06 230.948C131.688 233.622 127.901 235.352 124.133 236.789C119.787 238.447 115.369 239.822 110.942 241.058C101.876 243.587 92.6219 245.394 83.2687 246.463C73.9386 247.535 64.5394 247.885 55.1553 247.509C50.4138 247.319 45.6797 246.94 40.953 246.374C36.0808 245.788 31.2294 244.886 26.3445 244.486C21.9261 244.124 17.4652 244.208 13.1139 245.371C9.4807 246.343 5.64232 248.075 2.88442 251.454C0.85166 254.034 -0.166268 257.266 0.0221675 260.542C0.208888 263.812 1.37709 266.95 3.37488 269.548C5.40413 272.202 8.25542 274.112 11.4852 274.981C12.2467 275.186 12.5724 273.656 11.8075 273.45L11.8074 273.45Z" fill="#E6E6E6"/>
<path d="M149 274H11V275H149V274Z" fill="#3F3D56"/>
<path d="M138 229C142.971 229 147 224.971 147 220C147 215.029 142.971 211 138 211C133.029 211 129 215.029 129 220C129 224.971 133.029 229 138 229Z" fill="#E6E6E6"/>
<path d="M44 102C48.9706 102 53 97.9706 53 93C53 88.0294 48.9706 84 44 84C39.0294 84 35 88.0294 35 93C35 97.9706 39.0294 102 44 102Z" fill="#E6E6E6"/>
<path d="M66 238C66 238 58.25 248.5 56.5 250.25C54.75 252 54.25 258.5 54.25 258.5L57.25 265.5L55.5 269L42 255.5L56.5 234L66 238Z" fill="#FFB8B8"/>
<path d="M95 173.351C95 173.351 66.1195 259.761 63.0309 261.783C59.9423 263.805 44.7316 251.114 40.356 248.082C35.9805 245.049 73.3802 187.354 73.3802 187.354C67.4604 168.399 70.2911 164 70.2911 164L95 173.351Z" fill="#2F2E41"/>
<path d="M55.554 267.372C55.554 267.372 55.554 264.372 56.5539 262.876C57.5538 261.379 59.4373 268.122 59.4373 268.122C59.4373 268.122 70.8282 271.121 65.6505 274.37C60.4728 277.62 45.1987 267.372 40.7977 264.622C36.3966 261.873 37.9499 258.624 40.2799 256.374L44.8104 252L55.554 267.372Z" fill="#2F2E41"/>
<path d="M103.5 244C103.5 244 105.75 250.667 107.75 257.077C109.75 263.487 119.25 266.821 119.25 266.821L121 271.436L115.75 274L100.5 270.154C100.5 270.154 101 265.026 101 263.231C101 261.436 93 246.308 93 246.308L103.5 244Z" fill="#FFB8B8"/>
<path d="M84 98C90.0751 98 95 93.299 95 87.5C95 81.701 90.0751 77 84 77C77.9249 77 73 81.701 73 87.5C73 93.299 77.9249 98 84 98Z" fill="#FFB8B8"/>
<path d="M78.0312 94C78.0312 95.5081 71 107.07 71 107.07L81.3003 112L86 97.5188L78.0312 94Z" fill="#FFB8B8"/>
<path d="M88.0919 149C90.1686 148.99 92.1667 149.792 93.6573 151.235C95.1479 152.678 96.0122 154.646 96.0648 156.718L96.3978 169.846L98.1596 172.86C98.1596 172.86 109 253.527 109 256.039C109 258.55 98.2358 265.476 91.9435 264.974C88.8307 264.726 81.8515 236.189 79.0823 220.566C77.1108 209.444 75.1871 197.34 73.2549 188.405C72.6097 185.183 71.7648 182.005 70.7251 178.887C65.1878 163.567 74.7522 149 74.7522 149H88.0919V149Z" fill="#2F2E41"/>
<path d="M117.322 269.935C117.322 269.935 118.702 270.307 117.196 269.812C115.69 269.316 116.192 266.592 116.254 265.207C116.316 263.822 131 268.325 131 271.793C131 275.261 112.176 275.261 106.655 274.766C101.133 274.27 99.8783 274.766 99.1253 271.298C98.3724 267.83 101.259 263 101.259 263L117.322 269.935Z" fill="#2F2E41"/>
<path d="M75.868 155.449C77.8233 155.449 82.0286 150.352 84.2295 152.586C85.8302 154.21 87.1885 155.77 88.3869 157.147C91.8269 161.099 94.8342 164.721 96.924 162.122C97.2399 161.729 96.1779 162.636 97.0635 162.025C97.4308 161.771 97.7112 161.408 97.8659 160.985C98.0207 160.562 98.042 160.101 97.9271 159.666C94.8948 150.025 93.0066 140.79 95.4178 133.075C95.5967 132.463 95.6822 131.826 95.6713 131.188C95.6715 131.094 95.6758 131.001 95.6842 130.907C95.8116 129.484 95.7796 124.385 90.023 118.543C84.7618 113.204 83.7524 109.923 83.6193 108.443C83.588 108.098 75.1069 99.1688 75.1069 99.1688C74.6629 98.9795 74.1688 98.9484 73.7052 99.0805C73.2415 99.2126 72.8355 99.5 72.5534 99.8961L69.8368 103.687C66.8838 109.62 65.5949 116.263 66.1111 122.89C66.8466 131.491 68.1235 148.5 69.1723 154.636C69.2592 155.195 69.5514 155.7 69.9902 156.05C70.2925 156.288 70.6529 156.437 71.0327 156.483C71.4125 156.529 71.7973 156.468 72.146 156.309C73.3126 155.758 74.5813 155.465 75.868 155.449Z" fill="#F96900"/>
<path d="M85.9301 88.4285L84.0314 86.4057C84.1894 97.057 94.1576 103 94.1576 103L71.9013 100.763L71.3388 97.9377L70.176 100.264L67.4586 99.5707L66.6769 97.8479L65 98.7681L68.4408 85.0711C71.8389 72.0045 82.2009 73.9212 82.2009 73.9212C96.7092 69.3465 94.9311 83.2972 94.9311 83.2972L85.9301 88.4285Z" fill="#2F2E41"/>
<path opacity="0.2" d="M78.0664 223L74 188L79 220.421L78.0664 223Z" fill="black"/>
<path d="M70.5 34C73.5376 34 76 31.3137 76 28C76 24.6863 73.5376 22 70.5 22C67.4624 22 65 24.6863 65 28C65 31.3137 67.4624 34 70.5 34Z" fill="#2F2E41"/>
<path d="M71.6811 32.9996C71.7919 32.9993 71.9021 33.0026 72.0142 32.9944L72.0254 32.9936C73.434 32.8891 74.7481 32.1581 75.6789 30.9613C76.6096 29.7646 77.0807 28.2001 76.9887 26.6118C76.8966 25.0236 76.2489 23.5415 75.188 22.4915C74.127 21.4415 72.7397 20.9096 71.331 21.0126C71.2189 21.0207 71.1099 21.0398 71 21.0556C72.3539 21.0512 73.6582 21.6292 74.6471 22.6719C75.636 23.7145 76.235 25.1431 76.3218 26.6665C76.4087 28.1899 75.9769 29.6932 75.1146 30.87C74.2523 32.0469 73.0243 32.8085 71.6811 32.9996V32.9996Z" fill="#2F2E41"/>
<path d="M84.5 91C85.3284 91 86 89.8807 86 88.5C86 87.1193 85.3284 86 84.5 86C83.6716 86 83 87.1193 83 88.5C83 89.8807 83.6716 91 84.5 91Z" fill="#FFB8B8"/>
<path d="M105.4 169.979L112.795 174.964C113.438 175.398 113.97 175.966 114.351 176.623C114.732 177.281 114.951 178.013 114.993 178.763C115.034 179.513 114.897 180.263 114.591 180.955C114.285 181.647 113.819 182.265 113.227 182.761C112.656 183.239 111.984 183.592 111.255 183.797C110.527 184.001 109.76 184.052 109.009 183.946C108.258 183.839 107.54 183.578 106.906 183.18C106.272 182.782 105.736 182.257 105.337 181.642L101.058 175.051L86 153.373L92.2394 149L105.4 169.979Z" fill="#FEB8B8"/>
<path opacity="0.2" d="M93.9998 150.185C94.0281 154.104 90.2238 157.508 84.8504 158L72.5237 131.332C71.2299 128.533 70.7453 125.416 71.1265 122.347C71.5077 119.278 72.7391 116.383 74.6766 114L87.12 129.397C87.5064 136.091 90.3111 143.029 93.9998 150.185Z" fill="black"/>
<path d="M93.9997 148.196C94.0289 152.026 91.8325 154.519 86.2889 155L73.5719 128.938C72.2372 126.202 71.7372 123.157 72.1305 120.158C72.5238 117.158 73.7941 114.329 75.793 112L88.6304 127.047C89.029 133.589 90.1941 141.203 93.9997 148.196Z" fill="#F96900"/>
<path d="M395.528 98.0222H381.905C380.853 98.0691 379.837 98.4149 378.977 99.0185C378.118 99.6222 377.451 100.458 377.055 101.427L373.966 110.263L371.495 117.104L368.035 127.013C367.674 128.196 367.187 129.337 366.584 130.418C365.958 129.334 365.46 128.181 365.101 126.982L361.796 117.135C361.147 115.233 360.066 112.165 359.386 110.263L356.297 101.427C355.9 100.454 355.228 99.6145 354.362 99.0105C353.496 98.4065 352.474 98.0633 351.416 98.0222H299.027C298.548 98.0222 298.074 98.1158 297.632 98.2978C297.189 98.4797 296.788 98.7463 296.449 99.0825C296.111 99.4186 295.842 99.8177 295.659 100.257C295.476 100.696 295.381 101.167 295.381 101.642V122.289C295.381 123.257 294.994 124.186 294.305 124.87C293.615 125.555 292.68 125.939 291.706 125.939H276.508C275.535 125.931 274.605 125.544 273.917 124.861C273.23 124.178 272.84 123.254 272.832 122.289V101.642C272.832 100.708 272.47 99.8098 271.819 99.1352C271.169 98.4606 270.281 98.0618 269.341 98.0222H256.676C255.706 98.0221 254.776 98.4026 254.088 99.0806C253.399 99.7586 253.008 100.679 253 101.642V111.183C259.734 119.712 259.734 135.235 253 158.366V169.38C253.008 170.343 253.399 171.263 254.088 171.941C254.776 172.619 255.706 173 256.676 173H269.341C269.82 173 270.294 172.906 270.736 172.724C271.178 172.542 271.58 172.276 271.918 171.94C272.257 171.603 272.525 171.204 272.709 170.765C272.892 170.326 272.986 169.855 272.986 169.38V146.862C272.985 145.92 273.351 145.014 274.007 144.333C274.664 143.653 275.56 143.251 276.508 143.211H291.706C292.672 143.203 293.603 143.577 294.292 144.25C294.981 144.923 295.373 145.84 295.381 146.801L295.381 146.831V169.349C295.381 170.309 295.765 171.23 296.449 171.909C297.133 172.588 298.06 172.969 299.027 172.969H341.748C342.715 172.969 343.642 172.588 344.325 171.909C345.009 171.23 345.393 170.309 345.393 169.349V160.023C345.393 159.063 345.009 158.142 344.325 157.463C343.642 156.784 342.715 156.403 341.748 156.403H319.074C318.105 156.395 317.178 156.007 316.495 155.323C315.812 154.639 315.429 153.715 315.429 152.752V146.617C315.429 145.654 315.812 144.73 316.495 144.046C317.178 143.362 318.105 142.974 319.074 142.966H332.759C333.725 142.966 334.653 142.584 335.336 141.906C336.02 141.227 336.404 140.306 336.404 139.346V130.02C336.404 129.06 336.02 128.139 335.336 127.46C334.653 126.781 333.725 126.4 332.759 126.4H319.074C318.105 126.392 317.178 126.003 316.495 125.32C315.812 124.636 315.429 123.712 315.429 122.749V118.27C315.421 117.31 315.797 116.386 316.475 115.701C317.153 115.017 318.077 114.627 319.043 114.619L319.074 114.619H337.608C338.685 114.677 339.727 115.013 340.632 115.594C341.537 116.175 342.273 116.981 342.767 117.932L354.783 143.856C355.726 146.052 356.249 148.403 356.328 150.789V169.38C356.328 170.34 356.712 171.261 357.396 171.94C358.079 172.618 359.006 173 359.973 173H372.638C373.605 173.008 374.535 172.634 375.224 171.961C375.914 171.288 376.306 170.371 376.314 169.411L376.314 169.38V150.789C376.397 148.406 376.91 146.058 377.828 143.856L397.659 101.305C397.882 100.958 398.001 100.555 398 100.144C397.999 99.7321 397.879 99.3295 397.655 98.9837C397.43 98.6378 397.111 98.3634 396.733 98.1929C396.356 98.0225 395.938 97.9632 395.528 98.0222Z" fill="url(#paint0_linear_99_1447)"/>
<path d="M235.336 110.372C230.496 111.692 226.107 114.32 222.645 117.972C218.61 103.703 209.923 82.114 201.452 78.5779C200.556 78.1588 199.574 77.9627 198.588 78.0059C197.601 78.049 196.64 78.3303 195.784 78.826C190.485 81.9279 187.035 91.9161 190.054 110.838C178.41 89.3725 174.344 89.4035 172.465 89.3725C171.562 89.3852 170.683 89.6657 169.938 90.1788C169.193 90.6919 168.615 91.4149 168.276 92.2573C167.013 95.08 164.487 103.889 170.648 122.842C163.224 112.606 160.944 111.303 158.326 111.427C157.488 111.477 156.679 111.754 155.985 112.229C155.291 112.704 154.737 113.36 154.383 114.126C152.165 118.344 152.411 128.953 159.312 144.773C156.948 142.673 153.956 141.428 150.81 141.236C149.962 141.296 149.143 141.569 148.428 142.029C147.712 142.49 147.122 143.124 146.713 143.873C143.91 149.053 149.793 163.601 157.063 173.465C162.946 181.561 174.744 194 191.872 194C194.27 193.996 196.662 193.768 199.018 193.318C199.838 193.171 200.566 192.704 201.043 192.017C201.52 191.331 201.707 190.481 201.562 189.656C201.418 188.831 200.954 188.097 200.272 187.616C199.59 187.136 198.747 186.947 197.928 187.092C197.891 187.099 197.854 187.106 197.817 187.114C183.585 189.905 172.865 182.027 166.366 174.954C156.662 164.377 152.411 151.659 152.165 147.782C154.198 148.619 160.051 152.093 171.448 166.796C171.93 167.475 172.66 167.933 173.478 168.07C174.295 168.206 175.133 168.011 175.807 167.525C176.481 167.04 176.936 166.305 177.072 165.482C177.208 164.658 177.013 163.815 176.531 163.136C160.513 138.662 158.942 123.835 159.466 118.841C164.179 123.68 175.946 141.423 184.817 154.823C185.263 155.502 185.953 155.981 186.741 156.16C187.53 156.339 188.357 156.204 189.049 155.784C189.741 155.363 190.245 154.689 190.455 153.903C190.666 153.117 190.566 152.28 190.177 151.566C171.695 117.445 172.342 101.935 173.42 96.724C176.192 99.5468 183.554 109.38 199.049 143.253C199.395 143.985 200.006 144.555 200.758 144.846C201.509 145.136 202.343 145.125 203.086 144.815C203.83 144.504 204.427 143.918 204.753 143.177C205.079 142.436 205.111 141.597 204.84 140.833C189.808 99.7329 196.338 85.8053 198.833 84.2233C202.068 84.2233 211.155 99.919 216.823 120.485C217.162 121.756 217.501 122.997 217.809 124.207C217.013 125.614 216.393 127.114 215.96 128.674C212.88 140.058 209.8 165.897 215.745 173C216.336 173.744 217.102 174.329 217.972 174.703C218.843 175.076 219.792 175.226 220.735 175.14C221.929 175.01 223.078 174.614 224.101 173.98C225.124 173.347 225.995 172.493 226.649 171.48C232.163 163.384 228.929 143.067 224.524 125.293C227.525 121.019 231.864 117.884 236.846 116.39C237.91 116.053 239.046 116.014 240.131 116.276C241.216 116.538 242.21 117.092 243.006 117.879C245.532 120.733 249.937 131.403 236.568 169.03C236.431 169.421 236.371 169.835 236.393 170.249C236.414 170.664 236.517 171.07 236.694 171.444C237.052 172.2 237.694 172.782 238.478 173.062C239.262 173.342 240.125 173.296 240.876 172.936C241.627 172.575 242.205 171.929 242.483 171.139C253.141 141.143 254.804 121.818 247.689 113.691C246.14 112.036 244.164 110.848 241.982 110.261C239.799 109.675 237.498 109.714 235.336 110.372ZM221.474 167.975C221.244 168.392 220.872 168.711 220.427 168.874C218.117 166.114 218.117 149.767 220.643 136.366C225.417 159.538 222.645 166.331 221.474 167.975V167.975Z" fill="url(#paint1_linear_99_1447)"/>
<path d="M100.832 0.376976L75.7404 11.3001C74.6322 11.784 73.761 12.6883 73.3178 13.8147C72.8746 14.9411 72.8957 16.1975 73.3764 17.3083L81.1678 35.2558C81.6511 36.3655 82.5542 37.238 83.679 37.6818C84.8038 38.1256 86.0585 38.1044 87.1678 37.623L112.26 26.6999C113.368 26.216 114.239 25.3117 114.682 24.1853C115.125 23.0589 115.104 21.8025 114.624 20.6917L106.832 2.7442C106.349 1.63447 105.446 0.762005 104.321 0.318218C103.196 -0.12557 101.941 -0.104437 100.832 0.376976ZM101.871 2.76997C102.021 2.70535 102.179 2.65991 102.34 2.63473L93.8568 18.6623L76.4332 13.8876C76.5416 13.8111 76.6576 13.746 76.7793 13.6931L101.871 2.76997ZM111.221 24.3069L86.129 35.23C85.6536 35.4363 85.1158 35.4454 84.6338 35.2552C84.1517 35.065 83.7647 34.6911 83.5575 34.2155L75.8361 16.4292L94.1756 21.4549C94.4611 21.5331 94.7648 21.5116 95.0366 21.394C95.3083 21.2763 95.5319 21.0694 95.6706 20.8075L104.55 4.03168L112.234 21.732C112.44 22.208 112.449 22.7465 112.259 23.2292C112.069 23.712 111.696 24.0995 111.221 24.3069H111.221Z" fill="#E6E6E6"/>
<defs>
<linearGradient id="paint0_linear_99_1447" x1="257.5" y1="132.5" x2="475.5" y2="132.5" gradientUnits="userSpaceOnUse">
<stop offset="0.227701" stop-color="#F96900"/>
<stop offset="1" stop-color="#CD5600" stop-opacity="0"/>
</linearGradient>
<linearGradient id="paint1_linear_99_1447" x1="140.17" y1="136" x2="399.128" y2="136" gradientUnits="userSpaceOnUse">
<stop stop-color="#F96900"/>
<stop offset="0.99" stop-color="#A600FF"/>
</linearGradient>
</defs>
</svg>
