<svg viewBox="0 0 70 70" fill="none" xmlns="http://www.w3.org/2000/svg">
<path d="M69.6318 0.949845C69.6032 0.811527 69.5359 0.684216 69.4376 0.582835C69.3394 0.481455 69.2143 0.410207 69.0771 0.377444C59.9254 -1.86212 38.7797 6.11866 27.3233 17.5808C25.28 19.6094 23.4172 21.8125 21.756 24.1649C18.2232 23.8522 14.6903 24.1133 11.6793 25.427C3.18389 29.1695 0.710414 38.9348 0.0213411 43.1355C-0.0177443 43.3654 -0.00300129 43.6013 0.0644103 43.8246C0.131822 44.0478 0.250064 44.2524 0.409836 44.4221C0.569609 44.5919 0.766555 44.7223 0.985184 44.803C1.20381 44.8836 1.43816 44.9125 1.6698 44.8871L15.3122 43.3811C15.3219 44.4105 15.384 45.4389 15.4981 46.462C15.5668 47.1725 15.8819 47.8366 16.3888 48.3387L21.6717 53.6139C22.1739 54.1206 22.837 54.4359 23.5467 54.5054C24.5632 54.6192 25.5849 54.6813 26.6077 54.6915L25.1108 68.329C25.0858 68.5608 25.1148 68.7952 25.1955 69.0139C25.2763 69.2325 25.4065 69.4295 25.576 69.5894C25.7456 69.7492 25.9498 69.8676 26.1727 69.9352C26.3956 70.0028 26.6311 70.0177 26.8608 69.979C31.0499 69.3065 40.8235 66.8307 44.5408 58.3276C45.8533 55.3139 46.122 51.795 45.8189 48.2762C48.1749 46.6135 50.3817 44.7484 52.4143 42.7023C63.9067 31.2574 71.8349 10.5649 69.6318 0.949845ZM40.9485 29.0491C39.8991 27.9995 39.1843 26.6619 38.8945 25.2055C38.6047 23.7492 38.753 22.2396 39.3205 20.8676C39.888 19.4956 40.8493 18.3229 42.0828 17.4978C43.3163 16.6727 44.7666 16.2323 46.2502 16.2323C47.7337 16.2323 49.184 16.6727 50.4175 17.4978C51.651 18.3229 52.6123 19.4956 53.1798 20.8676C53.7473 22.2396 53.8956 23.7492 53.6058 25.2055C53.316 26.6619 52.6012 27.9995 51.5518 29.0491C50.8559 29.7466 50.0295 30.3 49.1198 30.6775C48.2101 31.055 47.235 31.2493 46.2502 31.2493C45.2654 31.2493 44.2902 31.055 43.3805 30.6775C42.4708 30.3 41.6444 29.7466 40.9485 29.0491Z" fill="#373737"/>
<path d="M21.3123 57.4346C20.456 58.2932 19.0826 58.6279 17.4294 58.9141C13.7153 59.5475 10.4356 56.3351 11.1028 52.577C11.3575 51.1523 12.1106 49.1551 12.5793 48.6859C12.6818 48.5853 12.75 48.455 12.7743 48.3135C12.7985 48.1719 12.7776 48.0263 12.7144 47.8973C12.6513 47.7683 12.5492 47.6625 12.4225 47.5949C12.2959 47.5273 12.1512 47.5014 12.009 47.5208C9.93206 47.7751 7.99981 48.7177 6.51988 50.1983C2.84639 53.8782 2.49951 67.5329 2.49951 67.5329C2.49951 67.5329 16.1497 67.1857 19.8232 63.5058C21.3071 62.0257 22.2499 60.0888 22.4998 58.007C22.5576 57.3533 21.7623 56.9638 21.3123 57.4346Z" fill="#373737"/>
</svg>
