<svg viewBox="0 0 74 74" fill="none" xmlns="http://www.w3.org/2000/svg">
<path d="M3.43122 70.4603L27.7965 46.1356M58.479 35.3187L51.1855 57.1627C51.0691 57.5129 50.8698 57.8298 50.6045 58.0867C50.3393 58.3435 50.0158 58.5327 49.6617 58.6381L4.95117 71.9051C4.54837 72.0245 4.12047 72.0314 3.71404 71.9249C3.30761 71.8184 2.93822 71.6027 2.64607 71.3011C2.35392 70.9996 2.15021 70.6239 2.0571 70.2148C1.964 69.8058 1.98506 69.379 2.118 68.9811L16.6361 25.507C16.7401 25.1949 16.9102 24.9087 17.1349 24.668C17.3595 24.4273 17.6333 24.2376 17.9378 24.1119L38.5626 15.6342C38.9819 15.4613 39.443 15.4162 39.888 15.5046C40.3329 15.5931 40.7416 15.811 41.0626 16.1311L57.9238 32.968C58.2262 33.2695 58.4384 33.6492 58.5365 34.0645C58.6345 34.4797 58.6146 34.9141 58.479 35.3187V35.3187Z" stroke="#373737" stroke-width="3.75" stroke-linecap="round" stroke-linejoin="round"/>
<path d="M58.9307 33.9733L69.758 23.1602C71.1935 21.7266 71.9999 19.7826 71.9999 17.7555C71.9999 15.7285 71.1935 13.7844 69.758 12.3509L61.6414 4.24011C60.9303 3.52992 60.086 2.96656 59.1568 2.5822C58.2276 2.19783 57.2316 2 56.2258 2C55.22 2 54.224 2.19783 53.2948 2.5822C52.3656 2.96656 51.5213 3.52992 50.8102 4.24011L39.9829 15.0532M35.9169 38.0248C35.3835 37.4925 34.7502 37.0703 34.0533 36.7823C33.3564 36.4943 32.6096 36.3462 31.8553 36.3464C31.1011 36.3466 30.3543 36.495 29.6575 36.7834C28.9608 37.0717 28.3277 37.4942 27.7945 38.0267C27.2613 38.5593 26.8384 39.1915 26.55 39.8872C26.2615 40.5829 26.1131 41.3286 26.1133 42.0816C26.1135 42.8345 26.2622 43.5801 26.551 44.2757C26.8398 44.9713 27.263 45.6033 27.7964 46.1356C28.8738 47.2107 30.3348 47.8144 31.858 47.814C33.3813 47.8137 34.842 47.2093 35.9188 46.1337C36.9957 45.0581 37.6004 43.5996 37.6001 42.0789C37.5997 40.5582 36.9943 39.0999 35.9169 38.0248Z" stroke="#373737" stroke-width="3.75" stroke-linecap="round" stroke-linejoin="round"/>
</svg>
