<svg viewBox="0 0 70 70" fill="none" xmlns="http://www.w3.org/2000/svg">
<path d="M22.6528 35L28.3889 29.2639C29.1667 28.4861 29.5556 27.5787 29.5556 26.5417C29.5556 25.5046 29.1667 24.5972 28.3889 23.8194C27.6111 23.0417 26.6881 22.6528 25.62 22.6528C24.5493 22.6528 23.625 23.0417 22.8472 23.8194L14.3889 32.2778C14 32.6667 13.7252 33.088 13.5644 33.5417C13.4011 33.9954 13.3194 34.4815 13.3194 35C13.3194 35.5185 13.4011 36.0046 13.5644 36.4583C13.7252 36.912 14 37.3333 14.3889 37.7222L22.8472 46.1806C23.625 46.9583 24.5493 47.3472 25.62 47.3472C26.6881 47.3472 27.6111 46.9583 28.3889 46.1806C29.1667 45.4028 29.5556 44.4954 29.5556 43.4583C29.5556 42.4213 29.1667 41.5139 28.3889 40.7361L22.6528 35ZM47.3472 35L41.6111 40.7361C40.8333 41.5139 40.4444 42.4213 40.4444 43.4583C40.4444 44.4954 40.8333 45.4028 41.6111 46.1806C42.3889 46.9583 43.3131 47.3472 44.3839 47.3472C45.452 47.3472 46.375 46.9583 47.1528 46.1806L55.6111 37.7222C56 37.3333 56.2748 36.912 56.4356 36.4583C56.5989 36.0046 56.6806 35.5185 56.6806 35C56.6806 34.4815 56.5989 33.9954 56.4356 33.5417C56.2748 33.088 56 32.6667 55.6111 32.2778L47.1528 23.8194C46.7639 23.4306 46.327 23.1389 45.8422 22.9444C45.3548 22.75 44.8687 22.6528 44.3839 22.6528C43.8965 22.6528 43.4104 22.75 42.9256 22.9444C42.4381 23.1389 42 23.4306 41.6111 23.8194C40.8333 24.5972 40.4444 25.5046 40.4444 26.5417C40.4444 27.5787 40.8333 28.4861 41.6111 29.2639L47.3472 35ZM7.77778 70C5.63889 70 3.80722 69.2391 2.28278 67.7172C0.760925 66.1928 0 64.3611 0 62.2222V7.77778C0 5.63889 0.760925 3.80722 2.28278 2.28278C3.80722 0.760925 5.63889 0 7.77778 0H62.2222C64.3611 0 66.1928 0.760925 67.7172 2.28278C69.2391 3.80722 70 5.63889 70 7.77778V62.2222C70 64.3611 69.2391 66.1928 67.7172 67.7172C66.1928 69.2391 64.3611 70 62.2222 70H7.77778ZM7.77778 62.2222H62.2222V7.77778H7.77778V62.2222ZM7.77778 7.77778V62.2222V7.77778Z" fill="#373737"/>
</svg>
