<svg width="38" height="38" viewBox="0 0 38 38" fill="none" xmlns="http://www.w3.org/2000/svg">
<g filter="url(#filter0_d_575_1039)">
<circle cx="17" cy="15" r="15" fill="#D9D9D9" fill-opacity="0.5" shape-rendering="crispEdges"/>
</g>
<g clip-path="url(#clip0_575_1039)">
<path d="M9 8.80281V21.0469L18.4064 23V7L9 8.80281ZM13.739 17.7724C10.7487 17.5815 11.0567 12.2441 13.8088 12.2017C16.7571 12.3947 16.4678 17.7298 13.739 17.7724ZM13.7821 13.2467C12.2068 13.3551 12.2773 16.697 13.7578 16.7238C15.3264 16.6237 15.2343 13.2727 13.7821 13.2467ZM20.0092 15.3753C20.1512 15.4787 20.3223 15.3753 20.3223 15.3753C20.1517 15.4787 24.9812 12.3021 24.9812 12.3021V18.0543C24.9812 18.6804 24.5764 18.9431 24.1213 18.9431H19.0005L19.0009 14.6896L20.0092 15.3753ZM19.0011 10.3923V13.522L20.1056 14.2107C20.1347 14.2191 20.1979 14.2197 20.227 14.2107L24.9806 11.0371C24.9806 10.6615 24.6268 10.3923 24.4271 10.3923H19.0011Z" fill="#373737"/>
</g>
<defs>
<filter id="filter0_d_575_1039" x="0" y="0" width="38" height="38" filterUnits="userSpaceOnUse" color-interpolation-filters="sRGB">
<feFlood flood-opacity="0" result="BackgroundImageFix"/>
<feColorMatrix in="SourceAlpha" type="matrix" values="0 0 0 0 0 0 0 0 0 0 0 0 0 0 0 0 0 0 127 0" result="hardAlpha"/>
<feOffset dx="2" dy="4"/>
<feGaussianBlur stdDeviation="2"/>
<feComposite in2="hardAlpha" operator="out"/>
<feColorMatrix type="matrix" values="0 0 0 0 0 0 0 0 0 0 0 0 0 0 0 0 0 0 0.25 0"/>
<feBlend mode="normal" in2="BackgroundImageFix" result="effect1_dropShadow_575_1039"/>
<feBlend mode="normal" in="SourceGraphic" in2="effect1_dropShadow_575_1039" result="shape"/>
</filter>
<clipPath id="clip0_575_1039">
<rect width="16" height="16" fill="white" transform="translate(9 7)"/>
</clipPath>
</defs>
</svg>
  