<svg viewBox="0 0 38 38" fill="none" xmlns="http://www.w3.org/2000/svg">
<g filter="url(#filter0_d_599_147)">
<circle cx="17" cy="15" r="15" fill="#D9D9D9" fill-opacity="0.5" shape-rendering="crispEdges"/>
</g>
<path d="M24.1199 7.88012C23.5329 7.29311 22.8265 7 22 7H11.9999C11.1735 7 10.4671 7.29311 9.88012 7.88012C9.29311 8.46714 9 9.17348 9 9.99995V20C9 20.8265 9.29311 21.5329 9.88012 22.1199C10.4671 22.7069 11.1735 23 11.9999 23H14.3336C14.4858 23 14.6003 22.9944 14.6772 22.984C14.7666 22.966 14.8473 22.9183 14.9062 22.8486C14.9823 22.7686 15.0207 22.6524 15.0207 22.5003L15.0151 21.7915C15.0119 21.3399 15.0103 20.9827 15.0103 20.7184L14.7701 20.76C14.6179 20.7881 14.4257 20.8001 14.1927 20.7969C13.9497 20.7924 13.7076 20.768 13.4687 20.724C13.2143 20.677 12.9749 20.57 12.7704 20.4117C12.5561 20.2496 12.3963 20.0261 12.3123 19.771L12.2082 19.5308C12.1204 19.3412 12.0102 19.163 11.8798 18.9998C11.7309 18.8052 11.5795 18.6739 11.4265 18.6042L11.3545 18.5521C11.3042 18.5161 11.2585 18.4742 11.2183 18.4272C11.18 18.3836 11.1484 18.3345 11.1246 18.2814C11.1038 18.2326 11.1214 18.1926 11.1767 18.1613C11.2327 18.1293 11.3328 18.1141 11.4794 18.1141L11.6876 18.1461C11.8262 18.1733 11.9983 18.2566 12.2026 18.3952C12.4092 18.5361 12.5819 18.7213 12.7079 18.9373C12.8681 19.2216 13.0603 19.4387 13.2861 19.5884C13.5119 19.7374 13.7394 19.8127 13.9684 19.8127C14.1975 19.8127 14.3953 19.795 14.5626 19.7606C14.7245 19.7271 14.8818 19.6744 15.0311 19.6036C15.0936 19.1391 15.2634 18.7804 15.5413 18.5305C15.1812 18.4952 14.8243 18.4326 14.4737 18.3431C14.1316 18.2491 13.8026 18.1127 13.4943 17.9371C13.1718 17.7615 12.8869 17.5242 12.6558 17.2388C12.434 16.9609 12.2514 16.5965 12.1089 16.1456C11.9671 15.6939 11.8958 15.1726 11.8958 14.5824C11.8958 13.7423 12.1697 13.0271 12.7183 12.4361C12.462 11.805 12.4861 11.0963 12.7912 10.3123C12.993 10.249 13.2917 10.2963 13.6873 10.4524C14.0829 10.6086 14.3728 10.7423 14.557 10.8528C14.7412 10.965 14.8886 11.0587 14.9999 11.1347C15.651 10.9536 16.3238 10.8625 16.9996 10.8641C17.6875 10.8641 18.3538 10.9546 19.0001 11.1347L19.3957 10.8849C19.7 10.7022 20.021 10.5488 20.3543 10.4268C20.7227 10.2875 21.003 10.2498 21.1984 10.3123C21.5107 11.0971 21.538 11.805 21.2809 12.4369C21.8295 13.0271 22.1042 13.7423 22.1042 14.5832C22.1042 15.1734 22.0329 15.6963 21.8903 16.1504C21.7486 16.6053 21.5644 16.9697 21.3386 17.2444C21.1034 17.5262 20.8174 17.7612 20.4953 17.9371C20.1589 18.1245 19.8322 18.2598 19.5158 18.3431C19.1653 18.4328 18.8084 18.4958 18.4483 18.5313C18.8087 18.8436 18.9897 19.3362 18.9897 20.0097V22.5003C18.9897 22.618 19.0065 22.7133 19.0417 22.7862C19.0579 22.8213 19.081 22.8528 19.1097 22.8788C19.1383 22.9048 19.1718 22.9248 19.2083 22.9375C19.2852 22.9648 19.3525 22.9824 19.4117 22.9888C19.471 22.9968 19.5559 22.9992 19.6664 22.9992H22C22.8265 22.9992 23.5329 22.7061 24.1199 22.1191C24.7061 21.5329 25 20.8257 25 19.9992V9.99995C25 9.17348 24.7061 8.46714 24.1191 7.88012H24.1199Z" fill="#373737"/>
<defs>
<filter id="filter0_d_599_147" x="0" y="0" width="38" height="38" filterUnits="userSpaceOnUse" color-interpolation-filters="sRGB">
<feFlood flood-opacity="0" result="BackgroundImageFix"/>
<feColorMatrix in="SourceAlpha" type="matrix" values="0 0 0 0 0 0 0 0 0 0 0 0 0 0 0 0 0 0 127 0" result="hardAlpha"/>
<feOffset dx="2" dy="4"/>
<feGaussianBlur stdDeviation="2"/>
<feComposite in2="hardAlpha" operator="out"/>
<feColorMatrix type="matrix" values="0 0 0 0 0 0 0 0 0 0 0 0 0 0 0 0 0 0 0.25 0"/>
<feBlend mode="normal" in2="BackgroundImageFix" result="effect1_dropShadow_599_147"/>
<feBlend mode="normal" in="SourceGraphic" in2="effect1_dropShadow_599_147" result="shape"/>
</filter>
</defs>
</svg>
