<svg  viewBox="0 0 87 80" fill="none" xmlns="http://www.w3.org/2000/svg">
<path d="M35.8385 22.8024L40.9462 7.60081L41.8941 7.91931L43.5 3.13973L45.1059 7.91931L46.0538 7.60081L51.1615 22.8024L50.2136 23.1209L52.7675 30.7218L52.9964 31.4033H53.7154H57.8476V30.4033H66.112V31.4033H74.3764V30.4033H82.6409V31.4033H83.6103L79.5121 34.2826L80.087 35.1008L66.7149 44.4959L66.14 43.6777L59.454 48.3753L58.8432 48.8044L59.0809 49.512L61.6348 57.1128L62.5827 56.7943L67.6904 71.9959L66.7425 72.3144L68.3258 77.0267L64.1331 74.081L63.5582 74.8992L50.1861 65.5041L50.7609 64.6858L44.0749 59.9883L43.5 59.5844L42.9251 59.9883L36.2391 64.6858L36.8139 65.5041L23.4418 74.8992L22.8669 74.081L18.6742 77.0267L20.2575 72.3144L19.3096 71.9959L24.4173 56.7943L25.3652 57.1128L27.9191 49.512L28.1568 48.8044L27.546 48.3753L20.86 43.6777L20.2851 44.4959L6.91299 35.1008L7.48787 34.2826L3.38971 31.4033H4.35914V30.4033H12.6236V31.4033H20.888V30.4033H29.1524V31.4033H33.2846H34.0036L34.2325 30.7218L36.7864 23.1209L35.8385 22.8024Z" stroke="#CFCFCF" stroke-width="2" stroke-dasharray="11 11"/>
</svg>
                   