<svg xmlns="http://www.w3.org/2000/svg" width="17.671" height="14.333" viewBox="0 0 17.671 14.333">
  <path id="Path_2" data-name="Path 2" d="M43.6,16.333A10.217,10.217,0,0,0,53.9,6.025V5.534a7.98,7.98,0,0,0,1.767-1.865,8.15,8.15,0,0,1-2.062.589A3.82,3.82,0,0,0,55.18,2.295a9,9,0,0,1-2.258.884A3.506,3.506,0,0,0,50.272,2a3.688,3.688,0,0,0-3.632,3.632,1.914,1.914,0,0,0,.1.785,10.15,10.15,0,0,1-7.461-3.829,3.76,3.76,0,0,0-.491,1.865A3.9,3.9,0,0,0,40.356,7.5a3.31,3.31,0,0,1-1.669-.491h0a3.588,3.588,0,0,0,2.945,3.534,3.026,3.026,0,0,1-.982.1,1.671,1.671,0,0,1-.687-.1A3.719,3.719,0,0,0,43.4,13.094a7.412,7.412,0,0,1-4.516,1.571,2.718,2.718,0,0,1-.884-.1,9.266,9.266,0,0,0,5.6,1.767" transform="translate(-38 -2)" fill="#008aff" fill-rule="evenodd"/>
</svg>
